/* XPM */
static char *b8087512adf94400e9302c4198d8f0dceT9qCBSuAUjF1JMg[] = {
/* columns rows colors chars-per-pixel */
"64 64 247 2 ",
"   c #15001D",
".  c #020124",
"X  c #02042D",
"o  c #020B2E",
"O  c #0D0027",
"+  c #16002B",
"@  c #00132E",
"#  c #000433",
"$  c #0A0334",
"%  c #010C34",
"&  c #0A0A34",
"*  c #03043A",
"=  c #020C3B",
"-  c #0C0A3D",
";  c #0A043A",
":  c #120334",
">  c #13063B",
",  c #10093F",
"<  c #001235",
"1  c #01123D",
"2  c #0A123D",
"3  c #011B3C",
"4  c #001D34",
"5  c #280039",
"6  c #010D43",
"7  c #0B0D44",
"8  c #000D4B",
"9  c #090744",
"0  c #160A48",
"q  c #011344",
"w  c #0B1343",
"e  c #021A44",
"r  c #091C45",
"t  c #01154B",
"y  c #09154C",
"u  c #011B4C",
"i  c #0A1A4C",
"p  c #121B4C",
"a  c #14154A",
"s  c #0E0D52",
"d  c #110B53",
"f  c #011353",
"g  c #001D53",
"h  c #0B1B53",
"j  c #021C5B",
"k  c #0B1C5C",
"l  c #081359",
"z  c #121B54",
"x  c #191858",
"c  c #22145F",
"v  c #012543",
"b  c #01234C",
"n  c #012A4E",
"m  c #0B244C",
"M  c #13204D",
"N  c #012354",
"B  c #0C2353",
"V  c #002B55",
"C  c #01245B",
"Z  c #09225A",
"A  c #002B5C",
"S  c #0B2A5C",
"D  c #0F2A55",
"F  c #132353",
"G  c #142954",
"H  c #15235A",
"J  c #1D235A",
"K  c #192855",
"L  c #013254",
"P  c #00335D",
"I  c #0A355C",
"U  c #003A5E",
"Y  c #103258",
"T  c #041D63",
"R  c #0C1E62",
"E  c #171D69",
"W  c #251A69",
"Q  c #012561",
"!  c #0C2564",
"~  c #002C63",
"^  c #0A2A65",
"/  c #022C6A",
"(  c #0A2C6C",
")  c #152668",
"_  c #003464",
"`  c #0B3462",
"'  c #013B64",
"]  c #0A3B66",
"[  c #02346B",
"{  c #0A346D",
"}  c #003C6C",
"|  c #0B3B6C",
" . c #133B6C",
".. c #15326B",
"X. c #032C72",
"o. c #1A2974",
"O. c #013572",
"+. c #0C3473",
"@. c #023C73",
"#. c #0B3C73",
"$. c #033E7B",
"%. c #0D3D7B",
"&. c #07367B",
"*. c #133D7A",
"=. c #153779",
"-. c #273075",
";. c #00415F",
":. c #014265",
">. c #02436C",
",. c #0A436E",
"<. c #014A6D",
"1. c #09486A",
"2. c #024474",
"3. c #0A4473",
"4. c #014B74",
"5. c #0A4B75",
"6. c #02457B",
"7. c #0B437D",
"8. c #014B7C",
"9. c #0B4C7B",
"0. c #134574",
"q. c #14437C",
"w. c #134C7B",
"e. c #144875",
"r. c #025274",
"t. c #095476",
"y. c #015877",
"u. c #0A5877",
"i. c #02537C",
"p. c #0A537D",
"a. c #035B7D",
"s. c #0A5A7C",
"d. c #11527D",
"f. c #1E5A7F",
"g. c #12416B",
"h. c #01637F",
"j. c #09637E",
"k. c #033D81",
"l. c #0E3D82",
"z. c #083B8A",
"x. c #163888",
"c. c #034583",
"v. c #0C4483",
"b. c #024D83",
"n. c #0B4C84",
"m. c #01448B",
"M. c #0C458C",
"N. c #024C8A",
"B. c #0D4C8A",
"V. c #144584",
"C. c #124B84",
"Z. c #194B84",
"A. c #134589",
"S. c #134C8B",
"D. c #1A468A",
"F. c #015383",
"G. c #0B5284",
"H. c #025B84",
"J. c #0B5C84",
"K. c #02548B",
"L. c #0C548B",
"P. c #015A8B",
"I. c #0B5B8B",
"U. c #125383",
"Y. c #1A5481",
"T. c #125D83",
"R. c #13538D",
"E. c #1A548B",
"W. c #125A8B",
"Q. c #1D5B89",
"!. c #014E91",
"~. c #084B95",
"^. c #184C95",
"/. c #025392",
"(. c #0C5490",
"). c #025C92",
"_. c #0C5C93",
"`. c #005C9A",
"'. c #0B5B9C",
"]. c #135492",
"[. c #135C92",
"{. c #155996",
"}. c #274889",
"|. c #225685",
" X c #026485",
".X c #0C6383",
"XX c #026985",
"oX c #0A6983",
"OX c #03648B",
"+X c #0B648B",
"@X c #026B8C",
"#X c #0C6A8C",
"$X c #136485",
"%X c #12658A",
"&X c #116B8D",
"*X c #156687",
"=X c #01718C",
"-X c #07768F",
";X c #026493",
":X c #0C6493",
">X c #026B93",
",X c #0B6C94",
"<X c #02649A",
"1X c #0C6399",
"2X c #026C9B",
"3X c #0B6D9A",
"4X c #126493",
"5X c #196394",
"6X c #126B95",
"7X c #186993",
"8X c #14639B",
"9X c #146A9C",
"0X c #1C6B9B",
"qX c #1B6499",
"wX c #027295",
"eX c #0B7294",
"rX c #017994",
"tX c #02749C",
"yX c #0C729C",
"uX c #007A9C",
"iX c #0A789E",
"pX c #15739B",
"aX c #167599",
"sX c #0B59A3",
"dX c #0264A3",
"fX c #026CA2",
"gX c #0D6DA2",
"hX c #0066A8",
"jX c #046CA9",
"kX c #0B6AA6",
"lX c #146DA2",
"zX c #1363A2",
"xX c #0374A2",
"cX c #0B74A2",
"vX c #017BA3",
"bX c #0C7AA3",
"nX c #037CAB",
"mX c #0C7BAA",
"MX c #0677AA",
"NX c #1175A3",
"BX c #1577A6",
"VX c #007DB4",
"CX c #00819F",
"ZX c #0082A3",
"AX c #0481AA",
"SX c #0685AA",
"DX c #1782AE",
/* pixels */
"!.c.B.O.6.lX2XxXtXwXeX:.U f.a. X;XH. Xp.| { %.c.M.O.$.-.s A F.8.N.6.C.} 6.9X<XfXfXmX:X2.2.G.K.P.8.8.p.3._ #.K.).~.`./.o.E v.).N.",
"L.9.C.[ 2.0XyXbXVXMXcX8.2.qX<XfX@XXXXXa.>.>.G.I.4XH.H.0.N ' J.G.F.4.8.' <.3X>XtXuXvX@Xr.r.+X>XwXXXXXXXs.' >.G.H.K.P.F.[ A 2.H.F.",
"i.4.4.U :.oXXX@XkX1X+X} [ E.I.;XJ.a.j.u.:.>.p.J.G.a.h.>.b P 9. .9.3.3.P } %X+X:X@X,XJ.<.t.%X#X@XXXXXoXu.] ] e.5.Z.H.a.>.A :.i.9.",
"! ! ! g g ` [ ~ u n n < o e n L C A } ' N N ~ _ k } r._ g _ | j C ^ ^ g C [ [ / ~ [ ~ g A [ _ _ A P ' _ N C ~ ~ k } 4._ g A _ g ",
"H.,X3X>X>XtX>XH.N  .g.` S ` e.4.O.8.4X9X_.(._.P.) L.cX9X1XcX3Xv.#.Z.S.B.S.].S.$.O.V.S.v.v.n.v.B.{ 6.I._.L.L._.P.T I.bX:XG.9X8X( ",
"i.3X3XcXcXcXyXH.X.N././.m.m.'.`.} F.xXAXxXmXmX2Xg i.tXtXxXAXuXF.[ F.K.P.).).P.2.[ F._./.).K.K.).@.8.>XtX2X2XtX@Xg H.ZXtX>XSXbX6.",
":. XH.OXOXH.+X4.[ n.b.K.N.c.{.N.` 2.+X>XOX6X7Xa.B r.XXI.4X,XXXi.P 5.4.i.8.8.U.[ U 5.p.b.H.F.8.d.I >.a.OXH.J.J.y.F :.H.I.L.,X#X4.",
"* H g g g f J 9 @ v 4 v v e n 3 : = b N u Z B = . 3 v 6 y u e 7 % K u g g t J - < r u u N g q r X < v N t i p 1 5 # q y f N b t ",
"K.c.O.[ 2.I.2X>X<XkXL.O.@.n.F.b.P.K.F.8.@.6.).).z.b.K.{ 6 3.2.S.c.8.8.~ #.2X;XfXhXdXzXO.A 6.2.8.2.8.p.5._ @.P.;X^.2.H.Z.g } :Xc.",
"H.F.2.} 4.+XtXtXvXbXH.>.r.&XeXwX>XXXXXa.4.H.,XtX3XtXwX0.t 5.r.J.G.i.i.P 2.wXwXcXnXcXpX4.4.7X,XeXH. XoXs.<.i.6XbX3XXXwX|.S >.+X8.",
"8.5.3.' >.d.%X+X+X+X4.' <.*X&X#X%X.XoXs.>.9.%X,X>XrX@X .t ] >.2.e.r.4.A ] +XOX4X+XJ.p.' >.*X+X.X.X.X.Xt.:.5.%X,XeXrXXXA = A i.9.",
"C Q Q g g Q ~ ~ g A N t C _ P A A P } _ N C [ [ ~ 4.i.[ g _ [ Q j ~ A 8 l [ _ / _ _ _ N A } } _ _ _ ' P u g ~ _ t >.r.[ C _ _ Q ",
"6.S.S.A.A.S.S.7.~ *.q.%.q.7.6.6.[ 6.I.4Xn.G.W.K.E n.xXcX2XtXlXD.+.R.B.x.}.(.N.%.} G.W.W.(.1X1XK.9.H.:X1X(.].{.K.d E.bX3XNXcX1XD.",
"2.F.P.P.K.P.K.8.' 8.F.b.b.b.F.P.' r.>XiX2X3XyX>Xd 8.uXvXZXuXvX8.[ P.P.K._.;XP.$.' H.;XtXxXtXvX2Xi.H.tXAXMXmXmX2Xx G.rX>XwXvXtX8X",
"' >.8.8.8.8.4.} P ,.4.2.8.6.2.p.I :.s..Xi.J.T.t.F 5.@X+X4X XaX2.V r.4.6.v.8.i.{ :.T.+X3X3X;XaX#X' >.H.,XOX:X+Xa.p <.@X6X9XwXOX4.",
"w p h g g B r = < r u g C g t i + X 1 q = = 1 % . 3 b 7 0 6 ` = & Y b y h u B , q G g C g q V e : = u C g N N e . @ e a 0 u b q ",
"N.6.6._ @.4X;X<XhX`.8XA #.n.b.K.K.b.b.8.@.c.N.c.!.N.c.=.T 8X2XVXjX2X<X+.( B.N.^.m./.$.C C _ ' ' b.8.F.9.[ [ k.m.M.!.$.o.l 7.K.F.",
"F.8.9.' >.7X3XcXnX2X#XP r.%X,XtXOXXX@Xa.} } G.P.K.H.H.#.A :XwXnXbXuX>X} _ H.F.K.P.:Xp.} 5.*X#X@XOX XXXa.>.2.F.K.).>XH.q.C 8.H.H.",
"r.r.r.:.<.XX@XrX3X+Xu.L 1.$X#XwX.XoXoXt.' ] w.U.Z.H.H.,.A i.+X5X7X@XoX] _ y.r.9.8.p.>.P >.T.+XOX$Xj.oXs.>.>.p.H.n. Xa.>.N } 4.#.",
"Q ^ ^ j C { [ ~ A ~ C q V _ P _ A V V V N C ~ A k _ >.A t A _ ! j P P t t P P C A [ A N ~ } @.2.P P ' U N N A _ T } 8.} C _ } ! ",
"P.<X<X2X3XcX<X8./ V.q.q.q.v.6.b...| n.I.L.[.:XH.) 6.OXL.v.b.L.+.k #.6.=.*.n.9.( 9.5X5X_._.<X<XfX2.4.H.+XG.G.I.H.o.L.cXlX1X2XgXR.",
"K.1X<XgXBXBX9X6._ n.2.b.8.8.F.P.~ 6.3XbX2XtXvXuXN >.XXP.).P.;X@.j 2.8.b.b.F.i.~ 4.OX2X2XfX2XtXnXr.y.>XtX>X>XwX>XC 4.uXtXxXuXvXP.",
"<. Xa. XOX XJ.:.A w.' 8.2.2.8.9.A >.+X,XP.H.+XJ.r U 4.6.C.8.I.~ Z 3.>.6.6.4.5.N >.J.:X;X<X;X+XpX:.<.a.OXH.J.J.a.B :.@XI.4XOX,X4.",
"1 G u g g t F & = K q S N g u t = 1 b A g h z 6 + 2 t 7 x 8 S # : m e u u b D > q B C C C N u B & = u N u u b e . o V q h t B * ",
"N.c.@.[ 2.I.2X2X<X2X_.@./ &.m.m.m.c.6.@./ &.M.m.c.K.N.o.s C 6.m.6.O.%.~ / C.c.!.m.~.v.[ @.4.8.i.c.6.6.2.2.8.;X2X'.P.b.}.f O.K.K.",
"K.F.2.} 4.+XtXtXtXtXOX4.2.G._.).K.K.F.4.[ 2.G.F.I.;XP.*.S :.H.(.F.2.4.P _ n.b.P.).).8.>.r..XXX@X,XOXoXa.<.i.,XtXNXuX@XQ.N 2.H.H.",
"9.9.3.] ,.T.#X@X@X#XJ.>.2.J.I.H.p.p.s.t.' } 9.i.e.F.H.} V ;.i.7.U.5.5.P _ 9.8.F.H.J.4.' t.%X#X,X%XoX%Xu.' ] Y.5X+X=X=Xu.b } 9.+.",
"Q ~ C g C ~ _ ~ A _ A g g A ~ ~ g A ' _ N g A A k } 8.} C V _ T ~ ~ ~ g j ~ ~ Q N A N t C [ [ [ N V P V q 6 C _ C 4.H.>.g [ O.T ",
"6.A.S.v.v.S.n.6.[ *.q.*.%.v.n.7.[ 6.I.:XG.G.W.J.) L.mXlXI.H._.A.@.C.n.B.B.R.B.$.A 0.q.%.l.v.k.c.^ [ 5.G.6.6.H.F.R G.mXlX1XfXgXB.",
"2.F.P.P.P.).K.8.A } 8.b.b.b.K.F.} i.>XvX>X>XwX@XN i.vXxXOX@X>Xb.} F.K.).;X).).6.V 4.L.b.b.b.b.F.| 2.OXyX3XtXtX=Xg 8.uX2XMXvXvX;X",
"' 4.8.8.8.9.5.} V _ } 2.2.2.4.5.` >.H.OXH.J..Xy.m <.OXI.p.oX#X5.P 5.2.i.F.8.n.[ n ,.5.2.6.4.3.5.] >.a.:X+X+X+Xa.F <.@XH.0X;X>XG.",
"= r i t t y w ; w w t u g g i r : * u C u b m 3   % u 6 = v n * $ a 6 t g t x - X w q = q q e r % % b C u t i q O < b 6 x t u 7 ",
"~.k.l./ $.8X<XfX`.fXP.@.2.9.b.b.@.2.[ | N #.6.F.z.M.l.=.j %.N.K.O.O.[ _ 2.I.2X2XdXkX_.$.@.n.N.K.n.8.4.} _ O.b.b.z./.c.*.j 6.F.K.",
"K.8.F.>.4.3X2XvXtXbX>Xr.a.#X,X,X#X#Xa.u.P 3.G.P.).<XH.8.A 6.9.8.8.4.>.' 4.#XiXvXtXvX;X4.i.+X,X>X@XXXh.r.' >.G.F.K.;XH.3.g 2.i.G.",
"8.8.p.>.>.J.+X,X;X6XJ.<.t.%X&X,X#X#X.Xu.P  .e.U.i.H.r.>.v P ] ~ 5.5.>.' >.J.6X:X@X6Xa.>.t.$X#X@X@XXXoXr.U ] w.9.G.XXa.,.g ] 5.0.",
"A ~ ~ N N ~ ~ A ~ [ A g N ~ _ _ V P ' _ u g ~ ~ A [ } _ N A ) h A A C g N ~ / ~ A [ A u C P _ _ P ' >._ g g ~ ~ C _ ' A t C A g ",
"7.C.7.7.V.Z.q./ [ V.V.%.%.7.7.n.[ 3.[.4XL.L._.P.l ! q.6.2.6.q.^ 2.v.n.n.B.R.B.$.[ q.q.#.%.7.6.v.[ 6.[.4XL.L._.P.R @.I.E.E.I.+X2.",
"2.F.8.K.).I.L.} _ 8.8.8.b.b.8.K.} 4.3XtXxX>XtX@Xg ~ U.K.P.P.P.} } 8.H.P.).).F.6._ 4.F.8.b.b.8.H._ 4.>XxX2X2XtX@Xg >.wXyXNXvXZX X",
"' 5.2.8.F.9.d._ L :.>.} 6.6.>.>.I ' .XH.OXF..Xr.e b ,.[ 2.} 6.A V ' 2.2.2.6.#._ L >.2.2.8.2.2.w.L ' a.OXH.J.J.y.z ' XXH.4X@XeX9.",
"= B t N N t B = 3 3 1 q h i q 1 & % b u N r K 1 o % F 6 h y J 7 : 0 w 6 6 6 - $ % e q q u t 6 w o < b N t i p 1 + < L e u t B ; ",
"N.6.8._ } :X;X2XdXdXzX$.6.'./.`.dX).P.F.O.@.N./.x.N.N.X.j lXxXfXxX;X1X2.@.[.K.`.`.lXI.2.6.L.).`./.<XH.U.[ ~ I.OX`.;XP.}.f 2.P.F.",
"G.6.9._ >.7X,XtXvXxX3X8.H.BXtXvXtX>XwXOX4.2.n.K.).OXP.*.Q 6XuXSXAXyXpX8.4.5X:X3XtXNX.X<.r.3XbXnXtXvX>X+X2.} 6XyXmXZXuXQ.C 4.H.i.",
"i.4.4.' >.+XXXXX,X,X+X4.s.aXeXiX@X@XeX.X>.] e.w.H.a.y. .Z 5.H.,XuXwXXX<.<.XXXX>X+X%X<.U r.&XyXbX2XtX>X+X2.@.5X6X6XrX=Xu.b ' 5. .",
"! ! ! j j { [ ~ ~ [ A u C _ _ } ~ _ } _ g g A ~ A ' 4.] g _ } [ Q ^ ^ f f ^ ^ Q g A N e N _ [ [ ~ _ [ _ N g [ [ ( 2.i.@.N ~ { ) ",
"P.2X2X;X>X2X2XH./ q.*.#.$.@.6.9...#.G.I.G.I.I.i.c Z.bXyX;X2XlXV.@.n.N.c.b.L.K.6.^ *.q.#.7.9.6.n.! [ w.W.p.G.J.H.o.b.cXlX8XgXlXE.",
"F.3X3XxXxXcXcXP._ G.b.F.F.8.F.H.Q @.OXyXtXtXwXa.9 4.uXuXuXvXAX6.[ C.S.].].].R.@.[ 8.9.8.8.b.F.P.N P J.,X@XwX=X=Xj 8.xXxXmXvXtXP.",
">. XH.OXOXH..X<.P w.6.9.9.} 5.e.N ' J.OXH.%XJ.<.i <.XXOX:XOXNX3.U i.4.i.i.4.p.U P >.>.>.4.4.2.9.D V s.XXH.%Xa.a.B 4.,XI.0X;XOX9.",
"= K i C g y x $ % F q u u = w 2 X q C N q y p 2 X 3 b y x 6 Z * < G t u t q M # = r t u N B q y - % A A g Z t y . 3 V 6 z t u 7 ",
"m.c.O./ $.[.<X`.hXjXP.} 2.F.K./.L.b.i.9.#.@.c.N.x.(.c.=.f @.8.6.B.$.q.~ ~ 9.6.c.} 6.R.O.@.L.8.F.K.K.P.b.@.c.`.<X`.<X).}.f $.P.F.",
"P.P.8.>.4.+XcXtXxXnX>Xr.y.#X,XyXwXXXOXa.>.2.n.K.K.>XH.*.g 6.H.H.b.2.8.' >.4X,XyXaXaXpX8.i.pX@XeX;XOX@Xa.4.H.3XxXmXZXuXQ.C 2.H.b.",
"i.p.5.' :.s.#X@XOX3XJ.<.r..X#X,X@XXXXXa.} | q.C.i.XXr...y ] 4.2.9.4.4.' >.$X+X3X&X&Xs.' 4.%XoX#X*X.X.Xu.>.5.%X@X6XwX=Xp.N ' 4.{ ",
"C A N t t A _ A A [ A u N A _ _ ~ _ >.[ C j / / Q } 4.[ g _ [ C Q Q Q g N ~ ~ ~ A _ A g A [ _ _ A A P P b C _ P ( 2.i.2.C _ } ! ",
"#.q.q.*.V.E.C.} [ q.q.#.q.7.7.n.[ 7.8X9X_._.1X).W v.yX3X3XyX9XV.+.V.A.A.S.R.S.6.O.C.C.v.v.7.6.6._ >.G.I.n.U.L.8.o.n.cX9X8X3XgXR.",
"} 6.8.b.I.4XG.>._ 8.8.8.F.F.8.F.[ F.cXmXxXnXAXtXs [ wXwXuXCXuX8.[ b.b.).).).I.6.[ b.8.8.8.2.b.F.U >. XwX>X3XwXXXk 8.tX2XMXuXuXP.",
"P >.2.2.6.p.5.' L >.>.} 2.2.@.3.` 3.+X,XOX:X6XH.p U XXa.I.OX#X3._ 9.2.8.F.8.9._ _ 9.>.3.9.2.U.U.L ' r..XH.J..Xy.B 4.-XH.0XOXOX9.",
"2 i h t q i r 1 1 r r q q 6 6 y $ 1 N N u h F q . < n ; 0 q V % 2 F q g N t F = = F 1 e i 1 r q : = u N t u r 1 . 3 L = z t r 7 ",
"M.c.7.f j G.P.'.`.kX_.2.2.F.K.P.K.F.F.8.@.c.).`.sX<X<XV.j v.6.(./.c.@.[ 6._.2X<XhXdX{.O.@.L.b.K.].b.8.2.} 8.`.<X).P.P.}.f } H.i.",
"F.i.i.A ~ +XwXyXtXbX;Xr.r.@X@X>X,X@X@Xa.4.J.yXxXcXvXuXG.C 8.4.n.P.F.2.} 4.+XyXtXvXxXyX8.i.6X@XtXOXXXXXa.4.J.pXyXDXZXwXY.t >.J.p.",
"8.i.r.A _ .XXX4X,X6XJ.>.r.oX#X@X$X.X.Xu.>.5.%X,X6XrXrXd.V ,.>.0.n.9.2.' >.J.6X,X@X,X%X<.r.*X+XeXoXh.oXs.:.,.Y.U.W.XXh.] = P e. .",
"Q _ ~ f f _ [ ~ ~ [ A g C _ _ _ V A ' _ u N _ ' C ' <._ t P _ N C ~ Q j C ~ [ _ A _ A t N A A _ V P :.U u u N N 8 _ 2.A t _ #.k ",
"*.R.L.D.D.L.L.*.~ %.q.%.%.v.7.7.[ 6.4X4XG.G.I.P.R 8.:X[.E.,XyX8.@.A.R.S.B.S.n.6.[ q.7.#.%.7.7.7.~ #.W.4XG.G.I.H.R L.BX9X8XcXcXb.",
"@.P.P.(.(.P.P.@.A 2.n.b.K.b.8.F.' 4.>XvX2X2XyX>XC i.tX3XcXuXZXi.2.b.).).).).H.8.P 8.6.8.F.8.F.8._ 2.>XtX>X>XtXwXC F.vX2XvXZXCX X",
"A 4.4.n.n.4.i.^ L ,.3.3.5.6.2.5.P ' H.OXH.I.+Xy.h <.XXH.I.H.6X_ ' >.4.8.8.9.5.' V ,.>.8.p.2.5.3.I >.a.OXH.J.J.r.B <.@XF.5XOXXXi.",
"; n u Z k u B > o 2 = = q t e m > q N A g g N e O e n q u q J $ - w q = 6 q w % % K r N Z t h r % 1 b V g h z w . 3 V 6 x q q ; "
};
