/* XPM */
static char *_2d45f3141e5466f931b61bf9cc63e63kPJn0cwWkVaE9jAo[] = {
/* columns rows colors chars-per-pixel */
"64 64 256 2 ",
"   c #CD5A58",
".  c #DC555B",
"X  c #DC5C5B",
"o  c #D85755",
"O  c #DA534D",
"+  c #EB4E54",
"@  c #E54F5A",
"#  c #FA4B58",
"$  c #EC5355",
"%  c #EC5C55",
"&  c #E45C5C",
"*  c #EC5B5C",
"=  c #E6555A",
"-  c #F3555B",
";  c #FD545D",
":  c #F45D5C",
">  c #FD5B5D",
",  c #F65655",
"<  c #EB534B",
"1  c #D6615B",
"2  c #DD645B",
"3  c #DB6657",
"4  c #DD735D",
"5  c #C96A5E",
"6  c #E3645C",
"7  c #EC635C",
"8  c #E46C5D",
"9  c #EB6B5C",
"0  c #E76454",
"q  c #F3645C",
"w  c #FD635D",
"e  c #F36A5D",
"r  c #F9695D",
"t  c #F5735E",
"y  c #EA775A",
"u  c #DC5C62",
"i  c #D15963",
"p  c #CF5D65",
"a  c #E45C62",
"s  c #ED5C63",
"d  c #EC5A69",
"f  c #F35463",
"g  c #FD5663",
"h  c #F35C63",
"j  c #FD5D64",
"k  c #FE566B",
"l  c #F45E6A",
"z  c #FD5C6A",
"x  c #F55169",
"c  c #FE5B72",
"v  c #FA5E76",
"b  c #EF5066",
"n  c #CA6766",
"m  c #DD6464",
"M  c #DD6B63",
"N  c #DA6A6A",
"B  c #CD7768",
"V  c #DB736B",
"C  c #DD7A6D",
"Z  c #DB7666",
"A  c #DC7A75",
"S  c #D97775",
"D  c #D57371",
"F  c #E46363",
"G  c #EC6463",
"H  c #E46B64",
"J  c #EB6B64",
"K  c #EB646B",
"L  c #E46C6A",
"P  c #EC6B6B",
"I  c #E4646B",
"U  c #F46463",
"Y  c #FD6364",
"T  c #F46B64",
"R  c #FC6B65",
"E  c #F5646A",
"W  c #FD646B",
"Q  c #F36B6B",
"!  c #FD6B6C",
"~  c #E57364",
"^  c #ED7365",
"/  c #E4736B",
"(  c #EC746B",
")  c #ED7B6D",
"_  c #E47B67",
"`  c #F37365",
"'  c #FB7265",
"]  c #F4736B",
"[  c #FC726C",
"{  c #F47B6C",
"}  c #FB7A6B",
"|  c #F87966",
" . c #E66D73",
".. c #EC6C73",
"X. c #E86876",
"o. c #F36374",
"O. c #FD6472",
"+. c #F46C72",
"@. c #FD6C73",
"#. c #FD657A",
"$. c #F46B7A",
"%. c #FE6D7B",
"&. c #E37473",
"*. c #EC7473",
"=. c #E57A73",
"-. c #EC7B74",
";. c #EC757A",
":. c #E47B7B",
">. c #EC7C7B",
",. c #E4757A",
"<. c #F47473",
"1. c #FD7473",
"2. c #F47A73",
"3. c #FC7A74",
"4. c #F4747A",
"5. c #FE747B",
"6. c #F27B7C",
"7. c #FE7B7A",
"8. c #DA8479",
"9. c #D9917B",
"0. c #DC8267",
"q. c #E4827D",
"w. c #E7847A",
"e. c #F2837D",
"r. c #FD837C",
"t. c #F78578",
"y. c #F28772",
"u. c #DC7887",
"i. c #FB6C82",
"p. c #EC7D82",
"a. c #E77982",
"s. c #F47582",
"d. c #FC7581",
"f. c #F47C83",
"g. c #FC7C82",
"h. c #FD7B8B",
"j. c #FF7588",
"k. c #DC8C8A",
"l. c #D98583",
"z. c #DB9388",
"x. c #DA9997",
"c. c #E48483",
"v. c #EC8583",
"b. c #E48B83",
"n. c #ED8A84",
"m. c #E48C8D",
"M. c #EB8C8C",
"N. c #EA858A",
"B. c #F58383",
"V. c #FC8484",
"C. c #F58A84",
"Z. c #FB8B84",
"A. c #FD848B",
"S. c #F48C8B",
"D. c #FC8C8C",
"F. c #F6858D",
"G. c #E69385",
"H. c #EC938B",
"J. c #E89688",
"K. c #F39284",
"L. c #F3948C",
"P. c #FC938D",
"I. c #F39B8C",
"U. c #FE9B8D",
"Y. c #FA9786",
"T. c #E98B92",
"R. c #F48C92",
"E. c #FE8D93",
"W. c #FE8D9B",
"Q. c #EC9592",
"!. c #ED9C93",
"~. c #E89898",
"^. c #F49394",
"/. c #FD9393",
"(. c #F49B94",
"). c #FD9A95",
"_. c #FE949C",
"`. c #F49C9B",
"'. c #FE9C9C",
"]. c #F3959D",
"[. c #DCA398",
"{. c #ECA49B",
"}. c #ECAB9C",
"|. c #E9A395",
" X c #FEA295",
".X c #F5A49D",
"XX c #FDA29D",
"oX c #F5AB9C",
"OX c #FEAB9D",
"+X c #F8A596",
"@X c #EBB39D",
"#X c #F7B39B",
"$X c #FDA58E",
"%X c #E999A1",
"&X c #FF95A3",
"*X c #FF9BA2",
"=X c #F89DA8",
"-X c #FF8FA2",
";X c #DCADA8",
":X c #DBBAB3",
">X c #EBA8A4",
",X c #F4A5A2",
"<X c #FEA4A3",
"1X c #F4ACA4",
"2X c #FDACA3",
"3X c #FEA4AA",
"4X c #FEACAB",
"5X c #F4A8AB",
"6X c #EBB3A5",
"7X c #E9B9AA",
"8X c #F4B3A3",
"9X c #FCB4A5",
"0X c #F4BBA5",
"qX c #F4B3AB",
"wX c #FDB3AC",
"eX c #F4BBAD",
"rX c #FCBAAB",
"tX c #FCBBA7",
"yX c #FFACB3",
"uX c #FAAAB6",
"iX c #ECBAB2",
"pX c #F5B5B3",
"aX c #FFB4B3",
"sX c #F4BDB4",
"dX c #FEBBB3",
"fX c #FFB6BB",
"gX c #FEBCBB",
"hX c #F4BBBA",
"jX c #DAC0B6",
"kX c #EEC1AC",
"lX c #F6C2AD",
"zX c #E9C9B7",
"xX c #FEC3B5",
"cX c #F3C3BA",
"vX c #FEC3BB",
"bX c #F4CCBD",
"nX c #FDCBBB",
"mX c #F5C6B3",
"MX c #F4D2BE",
"NX c #FFBDC2",
"BX c #FFBBC7",
"VX c #EACCC4",
"CX c #FFC3C3",
"ZX c #FECBC3",
"AX c #FFCACB",
"SX c #F6C8C4",
"DX c #EBD7C9",
"FX c #FED3C4",
"GX c #FED4CB",
"HX c #F9D9CA",
"JX c #FED9D7",
"KX c #FFCAD2",
"LX c #FFE5D6",
"PX c #FFEBE4",
"IX c #FFF8E9",
"UX c #D7C9C0",
/* pixels */
"! ] / P.D.P ' [ / *.2.*.=.=.2.3.-.).r.& R [ w w Q 4 3 2 wXD ! ` ` 4 y t H 9.$X0 } [ } Q H ).XXu ( 4 ~ ` ` ~ 8 ] { : 5 8X6.F C R ",
"; s I E.E.@.W W @.@.O.O.O.O.W j ..W.g.. * h + - ; h > W 4XX.k j k U Y z k h./.j Q U ! Q I E._.d j j Y > > j j j + # a *X#.f U g ",
"6.a.l.5X4XT.N.c.V.B.6.>.>.>.>.>.x.aX,Xl.A A D :.K C ( >.gXl.$.( s.,.>.4.X.%X,X6.b.c.M.M.k.5XyXT.*.<.*.V V *.*.L L 5.M.aXR.:.:.1.",
"wXwX1XvXvX4XdXvX9X9X8X8X9XtXmXFXgXGXZXwXwXwX2XwX4XkXtXeXIXVXwXrXyXqX0XwXpXPXJXwXwX2X4XwXwXdXvX4X8XwXqXbXMXdXwX8X9XdXvXGXSXcXeX9X",
"[ ] H 2.1.<./.4X..*.=.*...6.'.vX7.V.7.1.7.7.7.5.h.n.6.p.CXuXh.B.d.-.=.2.v.vX!.<.! W W ! Q Q @.E ;.%.s.aXfXA.g.v.6.B.f.N.aXaXD.f.",
"e ` 9 ' T J P.2Xg h U j ; l E.gX[ ! R ! [ 1.1.! #.<.Q @.yX=Xc h z q 0 Y @.aX*., U U j > U U U j s # x 4XaX#.c ] O.1.#.#.gXaX%.z ",
"H ^ 8 ` J M b.|.l G ^ T > E ^.bX{ ^ ( 2.( ( ) / @.-.` <.1X4XE J W ^ 8 Q *.dXC q M P G 6 H ~ H 7 8 g s qXxX+.@._ ' ) @.K xX9X7 6 ",
"W ! j W W O.E.<Xj 7 8 e > E M.iX@.W 1.7.1.@.5.5.1.y.` J !.<XE ` O.] H T  .fXV Y K @.z f E Q h g 9 j h }.6X@.1._ ' ) @.l xXoXU 3.",
"R Y j j s K A.<X0 ; g Y < # A.GX7 0 ' R E E ! w Y ! + u 4X'.@ k Y q Q + <.OX7.# 7 Y - G R ; ; 2 j + . <X4XP Y O.W [ , W 4X<XW : ",
"V V &.,.A l.~.pXB N N D C <.`.UXB.*.2.*.,.a.*.P V >.>.k.vXqXn ;.>.D b.,.Q.mX|.f.=.1.P V ;.o.K S V D 8.dXgXk.:./ :.z./ v.cXiXa.=.",
"wXwXaXaXaXfXCXAXdXgXCXhXdXaXCXVXvXqXrXeXSXJXcXrX9XwXaXaXAXZXqXAXgX6XdX3XaXGXcXNXbXdXqX7XsXyXpXDXdXgXdXCXAXfXdX4X5XdX4XaXPXJXyXwX",
"C.V.V.V.g.f.f.p.F.=XBX~.>.1.4.a.4.+.1.g.&XBXF.7.>.*.4.K I  .a.<X3Xv.A.d.s.R.m.yXR.d.4.;.f.j.A.aX).S.;. ...4.f.f.s.v.g.A.CX5Xh.A.",
"T T R ! ! @.! ! E D.fX:.U w Y W W j j ! A.yXK , * $ Y j ; j G r./.Q 1.! W @.f.gX7.j Y G R O.@.4X7.Q E Y W Y h E W P Y W wXR.@.[ ",
"` ` ` ` [ 3.3.[ T w.dXV T ' ' Y ) ` e 4 9.xX5 9 q % T R Y Y J y.K.6 [ | ' Y / 9XK.H ^ 4 _ ` V 0Xt.8 T ' [ R 7 Q T 8 q 7 9Xb.Q e ",
"2.2.2.] ] { ] Q ' 8.xX .! ^ ~ G Q Y > q q.vX& Y ! 9 8 0 q U F n./.Q r.y.{ ! ..qXA.j ! r R Y F wXV.J P 9 9 ` G 2.1.~ ' T xXH.1.| ",
"E @.@.Q Q ! Q U , A gXv k G L @.m R Y P l.vX  ; k h G & Y z @ f.A.f R / Q O.#.aXV.= ! T T Y u aXi.E @.G U 3.l #.W 6 Y : 4X:.l R ",
">.%.%.;.S 4.+.4.d.3XfXR.I #.o.X.$.X.N :.*XyXE.p c n N v o.X.$._.-Xu.u.$.h.*.v.uX~.$.#.I s.o.h.aXh.%.o.o.$.%.$.o.i.i ,.h.uX*Xa.i.",
"7X2XwXmXbXdX2X0X1XmXFXbXgXdXrXlXwXdXdXeXmXFXnXeX4XzXmX4X1XeXdXnXwXzXDXpXdX@X7XFXMXqXwX7XFX4XqXHXnXmX7X7XkXkXkX7XdX7XbXqXZXbX7X4X",
"z.B.D.qXnXXXS.H.S.q.z.>XdXXXL.I.C.P.P.n.q.n.L.L./.mXrXA.v.H.P.b.v.6XGX`.P.K.J.Q.|.S./.}.xXL.C.J.Z.V.B.B.B.V.B.B.L.8XxXb.n.z.G.A.",
"G # k A.yX5.g U W h * 5.*X1.E R W W W W W ! W j W  XZ.; - U j $ j D.4X@.z Y R O.W k W C.'.W k h h U Y Y Y U U U f V.XXh - * - # ",
"` j d M.vX;.E ] W ! P 6.4X-.1.3.3.1.1.1.3.7.3.] +.8XK.W ! Q ! T ! K.4X<.! ' } 5.[ ! 1.H.OXK W ! Q ] ` ] ] ] ] ] E n. XG Y Q U > ",
"^ R a k.ZXS T ` G 1.P &.2XZ ( [ ~ ( ( ( H H ( -.P 8Xw.E <.H [ ` U b.1X;.1.` ( 5.} 3.<.G..Xm R ` U Y Y Y Y R R Y +.b.!.m Y T P T ",
"% Y d c.AX .Y w E @.s ..wXm U j Q [ 1.@.! R [ 7.l 9X:.; ! 7 Y R > S.4X4.@.[ ] @.' @.O./.<Xl ! 7 ] ] ( ( ] ] ] ( z S.XXa ; j U q ",
"O W F k.GX&.R q J P o &.vXB P W J F G E Q Q G 6 K xXw.* T 6 R 9 % L.dX&.U ^ ( ..4 ! K ^.aX+.1.3 U G 7 7 G G G 7 d ^.rXF - h 6 1 ",
"pXdXrXxXSXJX7XqX4XqX7XvXxXsXSX:XpXpXpXpXpXpXpXpXvXNXfXjXVX>XaXiXgXvXvXgXsXpXpXsX5XjXVXiXAXsXiX4XeXaX>XzXzX>XaXsXsXCXvXsX7XbX;X6X",
"_./.P.'.4XBX*X'._.'./.XX).*XgXfXE.E.E.E.E.E.E.E.D.W._.5XCX_.&X)././._././.E.E./.&XaXgX*X3X/.).W.)._.'.gXgX*X*X'._.*X_.'.<XgX'.*X",
"K s % G 6._...! E Q J Q G K E./.s s h h U h h s o - h >.).Q W 6 U E E E E E Q R E C.P.F j & J j F E +.L.L.+.W J Q @.E Q *.D.P E ",
"<.' e ^ e.<X6.3.] 2.) t.] ] P.L.7 7 q e e e e e ` R T w.U.] ! 8 T T T T ` ` ` ' U Y. XJ U 9 | R ^ R Q L.I.<.1.2.3.7.1.1.y.U.( Q ",
"Q ' e J *./.*.` ] ] ^ } ' ] Z.w.7 7 q q q q q q T > % Z K.U R 9 T T T T T T T e % t.Y.7 Y T } Y ^ R J K.K.Q [ { J [ R ] ( Z.J R ",
"E ! Y R 1._.5.1.1.1.R ! W @.E.P.j j j Y Y Y j j % # + / P.W W R @.! ! ! ! ! ! W g V.P.U W R [ > R W W /./.O.W [ ! 1.@.@.1.V.U Y ",
"I Q 7 F ,.*X;.P ..*.H Q U P /.Q.. . . . . . . . X @ a A '...+.L K F F F F F a a d v.H.I E m L s H s K ^.^.K E L *.4.+...&.D.m a ",
"`.XXI.!.qXJX1X(.!..X.X2X).(.vXbXXXXXXXXX.X`.`.`..X).<XcXJX<X<X}.<X,X.X.X<X<X,X.X<XcXFX,X<X~..X'.oX).`.bXnX`.'.oX{..X(..XqXFX1X.X",
"P.L.I.L./.).!.rXHX`.E.P.L.P.P.8XCX`././.P. X/./.).ZXnX<X/.(.2XP.).(.OXXXXX<X,XZXvXH.D.P.P.L.n.L.Z.4XAX>XXXP././.U.<XVXaX(.(./.Q.",
"! E T G E E K D.fXs.O.Q U Y R C.E. .O.W U R U W %.'.L.5.@.+.2.W @.Q +.Q W @.;.*X/.F h > : U G Q + ..3XN.+.Y W @.* %.yXE.E J z Q ",
"R 7 P T R Q J P.xX*.E ] P U U t.n.H Q R 7 Q J ! +.XXG.<.5.( ^ 1.3.<.2.` [ 1.>.XXP.H U : % 7 * U 7 m aXn.H R U P 9 +.vX>.J ^ Y ^ ",
"' 9 ` ] 1.T 6 r.lXV G { { R U y.n.M ] ' T { ` 3.F OXG.J 3.{ ) 3.] ( { ^ ` ` / L.K.M T r q T 7 q [   4Xq.8 } T J ` J vXN J { Y ~ ",
"! Y ! W W ; + 5.dX@.g ! [ W j 5.D.W W Y Y [ Y W - <XP.Y W 1.[ @.O.! 3.! ! @.1._.g.s j > > Y j j > O 3Xg.Y ! Y @.R j fXE j R > W ",
"6 o 1 o . a u B.qXL = 1 1 F F >.S.m F & 2 H 1 X a OXH.F G L / G +.L / H P <.;.<XS.m a o O 2 o = o   4XN.F = o V o u aX,.a 3 $ N ",
"|.}.6X~..X4X1XZXHX,X'.|.[..X1XcXZX>X.X+X|.}.{.1X4XFXzX1X<X{.8XOX.X{.@X}.oX,X>XCXZX1X<X.X|.8X{.{.+X1XJXhX2XL.!.6XoX1XHXfXXX|.).}.",
"4XaXCX4X3XyX=X5X7X_.3X4X,X3XyXCXgX`.'.).(.<X4XaXyXqX[.3X3X`.,X*X*X3XdXdXaX3X].yX5XT.*X4XaXCXdXyX<X3XuX~.3X'.4XaXvX3X;X5X*X2X*X{.",
"k >.vX*.%.@.*.2.5.+.4.@.@.+.:.aXU.* R 0 o h F 4Xr.J 7 U U 7 T J Y P >.4Xg.E W E ] J : z s.gX`.W ^ ] [ R R ' } 3.4X6.Q W U Q G E ",
"k / 9XJ W ! [ [ 1.R 1.[ ! ! -.2XZ.$ > q q j s <X3.U Y ! Y Y ! R Y q H P.Q : Y Y R r w W 4.aX/.Y [ [ [ ! ! ! 1.[ XX] Y Y w ! Y W ",
"! 8.#X~ [ } y.} { ^ { | [ ^ _ OX).& R ^ ^ Q L 1X2.H P 1.] Q ` ` } ^ Z $X) ^ | | q y t R =.rXJ.9 2.2.] <.1.2.{ ) +XZ 9 e 9 ` J ` ",
"G 8.+XH U J ^ T [ Q 3.` ' Q =.2X^.a - 6 6 = F .X3.J J +.Q Q Q Q U J /  X6.Q Q 7 Y J 9 E ;.dX(.J 3.1.<.1.1.1.<.<.OX=.Q R T ` J Q ",
"f f.*X%.l d o.c O.l O.l l O.$.&XF.f - 7 * + l '.5.h = h h h E h f d  ._.%.l l = c l a l i.fX_.E O.W W W W W E Q *X$.O.z l E d l ",
"R.dXZX3X].>X5X&X_.R.Q.M.R._.].NX7X(.P.I.I.C.).xX2XH.G.H.H.H.L.K./.`.>XCX%X^._.S.W.m.z.].=XKXqXP.).L.S.P.L.H.I.+XZX~.^.E.S.^.M.^.",
".XlXlX4XqXbXbX5XwX1X8XoX9XwX8XZXDXvX2X#X#X X2X7XrX8XlXnXlX0X9X9X2XtXmXLX6X{.2XoX3X6XzXZXpXSX6XOX2XoXOX2XoX}.0XnXLXiXwX9X9XrX8XwX",
"O.3.P E 7.XX).%.W U T U ! ! s <.fX&X%.P Q W #.I K P V./.V.+.+.+.W 7.Z.<X4.Q ! E c -.U.'.o.X.. Y l h h l s a +.A.<X;.@.@.! [ Q @.",
"W >.6.W 5.I.L.#.2.H H <.] Q ] P NX^.Q j Y T Q <.U 3.V XXf.g.+.5.@.4.T.4X*.Q E +.W P H.<Xa %.* Q U U * E @.F L V.+X&.5.+.2.=.-.7.",
"! 3.] W R P.Z.g ! j Y W Y Y Y j 4Xv.U w R R T Q R [ 8 /.Q @.R 1.! Q S.4X( q Y W Y J C.OX& O.- T Y q : Y R * G 7.Z.h O.z 1.R Y Y ",
"1.3.' 1.T  XP.j ^ ] ] ] ` ] ` J rXL.^ e ' ' ` ` R ' J ).[ 1.[ } ! Q /.aX` w [ ! ! G Z.2X* ! Y R T T 9 T Q 6 H r. X/ 3.} r.) { | ",
"J H m  .n L.C.a & G G X & G & & 4XA.s + $ - - - & 1 N ).&.L / M T n m.<XM o J m G   A '.  u F X $ $ $ $ - @ * 5.'.V P F P J P Q ",
"H.E.R.=Xx.aX4X^.A._.R.N.^./.F.E.FXqXQ.c.b.H.Q.R.n.Q.~.fX`.^.).H./.m.hXCX(.C./.m./.b.,XCX~.m.^.S.G.H.M.M.H.m.Q.4XfX].<XM.E.D.E./.",
"2X3XyXNXAXCXfX4XaXfXpXpXZXvXqXgXbXsXwXwXdXdXdXaXaXAXCXgXyX<X4X2X4XfXJXAXaX<XaX5XaX4XgXJXAXyXaX4XqXrXwX4XwX1XqXvXCXcXJXsXwX4XwX1X",
"Z Q 5.l.aXN.*.=.%.d.*.B.<XD...g.@.@.%.%.5.d.5.%.c.wXQ.S  .P ] ( P ^.yXm.B.<.r.>.6.B.:.'.<X8.;.<.@.@.W W O.O.W %.4.A.4XB.@.O.%.J ",
"0 , j N gX5.j ` U Q H e.OXZ.2 <.~ ] } ] / Z / ] M OXZ.X Y > , , % P.<X&.1.R [ } T 1.G V.'./ J Y ~ ~ 8 9 ` ` H ^ F e.OX/ = : R & ",
"8 U J B tX] ' ~ e ^ =.A wXV ) t.[ T [ 3.1.] 3.] 5.@X9.w q 9 9 8 s J.0XZ ' } ^ | 0.7.5.G.J.<.R t T T T T T T T T R 9.#X( W 6 3 ' ",
"Y j j / wX@.W E Y Y Q ..3XK U w 3.] 1.7.2.1.3.<.k XXC.; ; Y W U # C.9X] O.1.! 3.^ W O./.).@.j R Q Q Q Q Q Q Q Q - e.2X@.k j U Y ",
"U g d S 4X%.W a Y E K X.=X..E % E E E E E W @.W v <XA.+ = * z a f S.2X+.O.E P E ( l v &X*X$.l W E E E E E E l l = D.wX..b h U $ ",
"q.;.:.x.vXM.B.8.e.c.l.m.aXm.M.q.,.v.>.&.;.6.6.6.W.pX~.D 8.D 6.A p.{.eXc.f.8.l.S n.q.c.4XqXk.c.a.6.6.6.6.6.6.;.;.p.,XsXz.D ,.w.C ",
"2X4XaXGXLXaXwXwX4XwXwXdXZXwXdXwXsXFXvX8X9XrX8X9XaXxX4X4XHXwX4XrX<XdXnX<XaXvXGXaXwXwXwXvXvXCXZX4XqXqXqXqXqX9X9X9X4XdXFXGXaX4XwX9X",
"*.1.f..X.X;.7.e.4.f.6.6.e.&.B.6.S.3X/.,.;.2.P P / N +.B.vXw.%.-.1.=.>.E g.L.4XB.1.e.>.6.>..XaXs.-.-.-.-.-.-.-.-.4.*.c.dX^.5.1._ ",
"T Y Q P.K.Q ! ] O.1.@.1.Q Q 7.@.%.W.h.f z z # ; 7 % k 4.rXP z G Y T T j @.e.XX+.! 1.} ! Q ).4X#.j j j j j j j W ! E *.wXe.g j 2 ",
"` Y Q I.G.` [ ^ Q 1.] 3.` ] r.<.S '.C.1 H ` 9 T 8 q Y M @XM ! ` q 9 T Y 1.w.OX] ! ) ) [ ] J.2Xd ^ ^ ^ ^ ^ ^ ^ ^ ] E ~ #XC > [ _ "
};
