/* XPM */
static char *_18fc0f6b4944fe9fd5d9a09b764c2b0amlxqsEExWrbYzqJ[] = {
/* columns rows colors chars-per-pixel */
"64 64 246 2 ",
"   c #2C1A00",
".  c #352301",
"X  c #3C2C01",
"o  c #3A2704",
"O  c #3C3200",
"+  c #483708",
"@  c #553C0D",
"#  c #4B3A13",
"$  c #4B3915",
"%  c #533D13",
"&  c #452E07",
"*  c #574708",
"=  c #5B4A1B",
"-  c #584418",
";  c #584C0C",
":  c #65590B",
">  c #675919",
",  c #67541E",
"<  c #746819",
"1  c #736B10",
"2  c #5D4B23",
"3  c #5A4626",
"4  c #624D24",
"5  c #624C2B",
"6  c #655323",
"7  c #6A552C",
"8  c #6C5A2C",
"9  c #695727",
"0  c #725E2E",
"q  c #6B5633",
"w  c #6C5B33",
"e  c #695735",
"r  c #715B34",
"t  c #725E3A",
"y  c #7A5F30",
"u  c #7A6B2C",
"i  c #746529",
"p  c #7C7426",
"a  c #756434",
"s  c #7C6C34",
"d  c #75623A",
"f  c #79633C",
"g  c #7C6B3C",
"h  c #796534",
"j  c #7D7134",
"k  c #7F733F",
"l  c #6F622A",
"z  c #745C43",
"x  c #7D6A43",
"c  c #7D6A4B",
"v  c #796544",
"b  c #7F6F4D",
"n  c #847817",
"m  c #857A2C",
"M  c #85782A",
"N  c #836D3E",
"B  c #837435",
"V  c #83723C",
"C  c #8B7C3D",
"Z  c #887A35",
"A  c #907E3C",
"S  c #826D43",
"D  c #826D4C",
"F  c #847244",
"G  c #8A7444",
"H  c #8B7A44",
"J  c #85714B",
"K  c #8A754D",
"L  c #8D7C4B",
"P  c #877948",
"I  c #927D4C",
"U  c #917E45",
"Y  c #846D52",
"T  c #857352",
"R  c #8B7453",
"E  c #8D7B53",
"W  c #8E7A59",
"Q  c #8C745C",
"!  c #927D55",
"~  c #937D5A",
"^  c #90765D",
"/  c #957E63",
"(  c #959015",
")  c #A29B18",
"_  c #8E8528",
"`  c #958C27",
"'  c #989228",
"]  c #8C8333",
"[  c #8D823C",
"{  c #948839",
"}  c #9D9434",
"|  c #9C933C",
" . c #9A953A",
".. c #A39C2B",
"X. c #A39B36",
"o. c #8E8146",
"O. c #93834C",
"+. c #968A4D",
"@. c #9A8C4B",
"#. c #968645",
"$. c #9C9248",
"%. c #958454",
"&. c #998554",
"*. c #9C8C54",
"=. c #95825C",
"-. c #9A855C",
";. c #9C8A5A",
":. c #978851",
">. c #9E9056",
",. c #8F8055",
"<. c #A29544",
"1. c #A3964B",
"2. c #A79B4A",
"3. c #A28D5D",
"4. c #A18E57",
"5. c #A3935D",
"6. c #AA9C5B",
"7. c #A69955",
"8. c #B19F5F",
"9. c #ADA54A",
"0. c #B2A74E",
"q. c #ADA256",
"w. c #B4A858",
"e. c #BEB658",
"r. c #9A8562",
"t. c #9D8B63",
"y. c #9A8668",
"u. c #9E8771",
"i. c #A28C63",
"p. c #A38D6C",
"a. c #A18762",
"s. c #A59264",
"d. c #AA9564",
"f. c #AB9B63",
"g. c #A5936A",
"h. c #AA946B",
"j. c #AC9A6C",
"k. c #A79861",
"l. c #B19C6C",
"z. c #B1976B",
"x. c #A38C75",
"c. c #A69273",
"v. c #AB9473",
"b. c #AD9B73",
"n. c #AC967B",
"m. c #B29D73",
"M. c #B39D7B",
"N. c #B39978",
"B. c #AEA164",
"V. c #B4A364",
"C. c #B3A36B",
"Z. c #B8AB68",
"A. c #BEB367",
"S. c #B4A273",
"D. c #BAA674",
"F. c #BCAB74",
"G. c #B5A27B",
"H. c #BBA57C",
"J. c #BCAB7C",
"K. c #BEB07B",
"L. c #AFA079",
"P. c #C3B95E",
"I. c #C4B86C",
"U. c #C1AD7D",
"Y. c #C0AB76",
"T. c #C2B474",
"R. c #C4B37B",
"E. c #CBBB7D",
"W. c #C6B976",
"Q. c #C1AF6E",
"!. c #D3C57B",
"~. c #D0C573",
"^. c #B59E84",
"/. c #B39792",
"(. c #B7A482",
"). c #BBA583",
"_. c #BDAA83",
"`. c #BEAA8A",
"'. c #BCA489",
"]. c #BFAF8B",
"[. c #C2AD84",
"{. c #C3AD8B",
"}. c #C5AA8C",
"|. c #C5B384",
" X c #C9B685",
".X c #CCBB84",
"XX c #C5B38B",
"oX c #CAB58C",
"OX c #CCBA8C",
"+X c #C6B987",
"@X c #D1BC8C",
"#X c #D1BD85",
"$X c #C4AD92",
"%X c #C5AB96",
"&X c #C5B293",
"*X c #CBB593",
"=X c #CDBB93",
"-X c #C7B299",
";X c #CBB59B",
":X c #CDBA9B",
">X c #C7B891",
",X c #D2BD94",
"<X c #D2BD9B",
"1X c #D3B99A",
"2X c #CEBAA1",
"3X c #CDB6A1",
"4X c #D3BDA3",
"5X c #D7BDA3",
"6X c #CEC186",
"7X c #D3C485",
"8X c #D5CA83",
"9X c #D3C28D",
"0X c #D6C98B",
"qX c #DACB8D",
"wX c #DAC889",
"eX c #DED288",
"rX c #D4C294",
"tX c #DAC595",
"yX c #DACB94",
"uX c #D5C29B",
"iX c #DAC49C",
"pX c #DCCA9B",
"aX c #D5C994",
"sX c #DED19C",
"dX c #E1CD9C",
"fX c #E4CF96",
"gX c #E2D29D",
"hX c #E4D496",
"jX c #E5D989",
"kX c #D5C2A3",
"lX c #DAC5A3",
"zX c #DDCAA3",
"xX c #DBC5AB",
"cX c #DECBAB",
"vX c #D6C3A8",
"bX c #DDC9AF",
"nX c #E1CCA4",
"mX c #E2CDAB",
"MX c #E3D2A4",
"NX c #E5D3AA",
"BX c #EAD8AA",
"VX c #E2CDB1",
"CX c #E4CABB",
"ZX c #E6D1B3",
"AX c #EBD7B7",
"SX c #EED7C2",
/* pixels */
"* i z.D.[.<X=X<X! H.MXyX XOXoX1XQ %Xu.p.t.h.H._.$X'.n.^ z {.oXOX*X;X<XmX~ r.mXmX1X{.v *XxXxX4XXX X9XdXg.i.iX<X1X5XmXmXlXmXAXuX_.",
"* h d.z.).<X1XoX! oXnX,X|.,XzX:Xu.VX;X<XuXiXnXlX1XxXxX'.D [.[.OXlX;X$X;Xp.v.mX1XmX).q _.lXlXlXkXOX.XBX3.o 4 ! t.r.E ~ R t r w - ",
"@ N v.v.^.5X5X;XY *XlXlX:X<XlXM./ VXlXzXmXzXlXiX:X1X:Xv.x [.[.OXXX*X:X*XM.m.nXoX,Xm.q [.mXlX<X,X9XE.D.&.V j.&.! K 2 r S 2 8 J 2 ",
"- K M.M.^.1X5X1XY ;XlXNXlX:XlXM.t.NXzX:XlX1X*X=X,XOX|.h.J ,X*X,XoX*X,XoXH.i.,XoX@Xj.8 h.oX,X<XrXY.T.*.H O.U.m.,X,X! a.{.s.H.rXG ",
"S a.M.[.}.*X1X}.D :XlXuX=XoXlXb.d.dXnX*X4X;X*X=XOX9XwXF.H oX[.{.OXH.H.|.U.d.pXtXdXS.- @ % - r h s B 4.6.V 4.C.[.,Xa.h.OXG.oXtXg ",
"3.z.m.[.,XiX,X).K iXBXpX,XiXrX%.4.R.iX*X5X;X;X=X9XE.Q.7.B OX*X*XoX|.,XtXl.L D.D.D.l.V N %.j.[. XC.>.V u U f.U.@XoXH.G.<X,XlXzX=.",
"4.Y.U.E.#X#X9XD.;. XpXyX0XqXR.>.$.6.@X1XxX4XlXuXhXW.<.M < @X<XlX,XpXpX@X0 - L G G I &.l.OX,X,XOX.X7Xf.V D.f.j.[.oX{.-.v.XXG.p.v ",
"I @XtXE.V.8.Q.6.U s C *.6.6.7.w.{ A F.{.3X;XlX,X#XA.<.< + ;.c.(._.G.-.S . = m.l.m.l.j.[.iX,X1XrXpX.XR.&.l.s.,X,XOX[.t R $Xc.Y e ",
"S K N h > ; C 6.*.G s i u C > < Z Z O.t.x.x.p.h.B A <.< Q.@X[.1X}.{.(.(.=.7 m.j.h.H.[.,XiX=XiX<X,XgXD.%.H.m.,X1X*X1XD v.cX-X;Xx.",
"R N.m.d.O.B F.9X X X=X,X+XF.i : 1.6.F.G.-X4XlXOXE.$.M < E.BX*X;X4X<XlXNXN.5 h.[.oX1X1XlXiX:XlX<X,XNXS.%.H.,XBXoX{.1XY v.xX-X4X^.",
"/.CXVX<XD.H @XiXiX<X<X:XrXgXB.7.E..XtX<XlX4XlXOXyXV.Z : 4.MXzX:X*X`.*XNXh.= h.iX{.XX[.:X*X*XlXlXcX).K G.,XuXiX1XoX1XW N.xX-XvX-X",
"/.CXxXlXU.N rXpX=X*X&X{.XXsXB.6.R.R.OXnX<X1XiX,X.XR.V.+.4.MXNXnXZXxXlXnX! + f =.H.M.p.b.~ ~ p.p.M.d $ [.iX=X*XnX1XiXr.M.lX*X4X;X",
"/.xX$X,XS.u E.yXpXiXkX=XOX0X@.o.8 S t K 4 d J g 6 @ - V G s.i.m.t.h.v.h.7 & - & # # % f r ~ G.'.M.t.t XXoXiXiXiXtXiXi.m.zX<X<X{.",
"%XxX[.9Xw.M Z.!.hXrXrXOXW.!.$.1.;.[.b.h.7 K m.i.-.J d K d g h S G a.g.s.J ;.S.&.G G F l.-.J.zXzXiXiXs.oX|.tXtX9X9XdXd.h.rXiXrXJ.",
"c.,XR.8X9.X.0.~.A.Z.A.W.A.e._  .s.}.oX[.L I tX,XH.}.N.c.p.J.OX@X,XtX,X[.O.C.9X XR.D.f..X;.H.@XOXOXoX%.J. X@X9XfX#XfXf.4. XtX9XD.",
"h.pXwXeX| } } | <.{ $.7.2.0.' w.m.n.1X,Xh.8 [.=XoX{.M.{.uXrX@X X XOXOX XH 7.W.8X7XR.C.@X;.D.,XOXrXyX5.T.wXwX!.!.!.hXV.+.F.9XOXS.",
"- O.C.V.@.Z #.6.F.R.f.V.Z.w.Z 6.m.M.iX*Xm.S oXiX*XuXiXuXnX,XdXOX=XMXOX.X2.2.e.P.8X+XyXBXO.J.tXrXhX~.1.w.~.jXI.!.~.q.Z 6.gX6X9XS.",
"* H ;.;.3.s.U.tX9X Xl.@XwXV.C D.a.).<X*X[.q x t.h.h.m.m.m.i.m.! F P x #.M ' ..X.1.R.%.P V 6XzX+X8XeX] 9.P.0.P.e.0.2.p [ .XyXrX%.",
"h l.l.d.S.J. XtX,XdXrXdX9Xf.U l.b.1X:X}.:Xq 5 p.oX_.{.H.h.! ! 2 L P ,.+.M ` ( ' m O.o.j.*.Z.+XJ.>.q.{ m < : : < 2.w.B s V L f . ",
"0 S.D.l.[. XOX,XrXpX X9XtXF.5.d.*XxX;X}.<Xv v <XlX*X<X<X*X_.{.J OX+XpX6X .' ( 9.I.C.+XsX*.= = a L > + X ; [ { q.A.Z.+.5.%.E w # ",
"0 D.oX|.OX=XiXpX,XuX@XpX|.G %.|.uX4X:X;X&Xv v kX:X`.:X<X<X<XmXv.rXrXBXqX<.X...~.8XyX9Xf.7.C P tXR.9X:.H j u W.eXqXR.f.9XrXlX(.W ",
"7 h.oX,XoX[.[.G.H.iXzXrXS.V S.nXlX*X:X<X`.c c lXlX:X<X;X:X:XxXc.uX=XrX9X<.} X.P.!.|. X%.C i %.tXrXrX|.J.C.+.F.T.hX0X9XrXOXiX_.T ",
"& 6 F =.E E r.J v -.! J ! L U.D.zX,X<X<X*XW c cXkX4X:X$X<XkXmX).zXlX=XrX1._ ` 2.E.J.tXtX5.; b.=XXX_.zXJ.&.V :..X9X0XgX|.b.(.G.J ",
"4 - % - # 2 D r v.=X<X|.g.g J.aX=XrXrXiXzXt.w *XuXlX<X`.<X<XlX(.*XkX>XrX#.1 1 ] C.zX>X,X|.- _.kX<X=X=XpXOX%.R.R.9X|.9XS.h.m.M.c ",
"E uXt.g.W =.&Xv.G.zX:XuXOX-. XOX9X9XrXyXpX%.8 XXMXpX=XXX=X<XXX`.&X4X;XlX#.+ m Z.[.kX:X:X|.f ).lX*XoX=XtXpX%.J.rXOX+XS.k.g.G.s.- ",
"K zXXX=X(.(.{.R (.uX:XXXuXt.tXOXqXyX9X.XyXk.a j.OXtXMXrXoXuXlXt.<X;X-XuXs + m 7.XXkX;X:XoXJ $XcX<XOX=XaXrXg H L 5.5.O.a - # 2 X ",
"t.uX=X=X&X*X&Xy.:XXXXX=XzXg S.OXT.qXqX7X.X+.s J.BXOXrXpXOX_.uX=.*X;X;XuX9 : 1.V.oX4X3X;X<X~ -XVX<XoX=XaXrXV H V s s g L g h x 7 ",
"G.[.=XNXmXuX`.c.uX=X<XNXzXg g.yX7XT.6.B.F.O.j F.yXgXzXOXrXiXmXd {.mXmXnXB m { 7._.-X;X2XuX=.&XVXuXXXOXrXyX;.D.S.j.j.D.tXpX,X_.E ",
"# # 2 w x T E v uXAXlX>Xg.f P %.s @.@.C i * , j.J.=X=XXX=Xb.W & G J.H.Y.1.0.M <.m.`.4X<X,X! }.mXlXXXOX=X=Xs.aXyXpXMXMXBXiXuX:Xt.",
"w x E v T G.:Xc.r.L.=.F = + X . X j #.o.O.V g g 7 = - e e $ $ w = h 9 , { 0._ w.d.(.4X<X@X! (.mXlXOX=X=XXXt.pXzXuXzXiX:X{.:XkXc.",
",.].MX=X>XuXlXJ + w x x w = - + X f.yXyX6XK.J.b.G.G.y.2 . c b J H B 9 * n X.n 2.6.G.uX1XOXI G.mXlX*X<X:XXXp.cXlXvXvX:X:X-X4X2Xu.",
"d g.rX,X=X=XiXb # g.NXrX+XS.j.L h +XyXaXaXOXrXXX=X>X=Xr.5 4X`.r.5.#.6.{ ' ..n 0.l.G.rXOXoX! G.nXzX=X,X=XXXg.mXkX:X:X:X2X-X3X3Xx.",
"= m.=XOX,XoX,XL @ J.OXOX=X=Xm.m.;.MXtXuXuX*XlX*XuX|.|.t.t *XN.p.p.-.d.A ) ) X.7.J.OXwXR.:Xc _.sXrXyXOXyXS.-.tX<X:X<X<X&X4XxX2XY ",
"% i.OXoX,XoXiXs.- |.=XOX=XuX{.XXS.pX=X:XxXkX4X[.i.s.l.G g iX[.v.p.N.p.M ( ( ` W._.XX8X0X].v OXyX0X6XR..Xf.*.9XrXOXXXXXXXuX=X&XT ",
"# -.|.OX,XoXiXH.8 OXuXoX:XuX=XiXh.OX=X>X:X&X`.)._.[.Y.N G iXoXH.y.x.a.#.( ) } E.iX XW.eX(.T aX8XjX!.eX8X7.o.6.F.yX.XyXgXgXR.C.h ",
"% I [.OX,X}.iX{.x <XzX*X*X:X<XiXa s.oX=X:X'.r.=.E ! I , F @X,X1Xn.Q p.Q.( ) } #.S.;.$.1.x w @.q.I.q.A.w.1.1.7.A.w.6.V.F.T.B.6.u ",
"- G Y.OX<X*X<X{.R <XmX1X:X*X<X,X+ = 8 w c c 2 2 = 4 0 6 H U.OX<X%Xu._.7X' ..2.*.K s ] p 6 6 ; ] w.] { M m { M Z Z M u l i u B * ",
"- N m.[.<X1X<X-XQ 1XVX<X<X*XuXOXF ;.E J W y.c.M.b.h.d.;.&.D.U.*X5X2X:X6.1 1 < #.S.k.q.$.f.C.u m Z @.I.T.T.!.W.6XT.R.T.f.f.C.C.i ",
"@ h z.H.=X1X5X;XQ -XVX1XiXoXiX X;.pXNXNXmXkXZXmXzXiX.XD.I S.|.,X$X:X,X6.` ' w.BXzXOXW.I.aXrXB.u 8 C.BXBXrXOX XOXXX=XyX,XzXMXMXt.",
"@ y z.z.}.1X<X1X^ $XmX:XuXXX,XJ.;.pX=X:XlX4XVX:XXX,XOXU.G D. XoXuX_.tXw._ ' I.9XrXyX8X8X|.j.K.a f G.uXuXuXlXkX=X<X:X:X&X<XlXVXv.",
"@ h z.m.H.<X1X1XR *XmX:X,XnXOXD.6.yXpXuXvX:XvX:X=XOX XU.&.J.OX[.OXOXW.A.X.} W.yXuXOXyXR.s.g.H.w x c lX:XlXcXcX-X&X;X;X;X2X;XVXu.",
"& G m.3.m.iXOXoX! oXrXnXpXD.l.d.f.9X6XOXuX:X;X'.*XtXrX%.s.|. XOXD.R.I.<.' ' E.OX=X:X Xl.b.`.v.3 d r.kXSXcX:XcXAXAXVXkXkXxXkXvXb ",
"r h.U.d.|.dXOX XV rXyXpX9XR.R.#.V.7X6X|.>X:XkXuX=X=XOXL ;.rX_.m.R.W.I.{ } ] E.rXkX*Xh.E ~ p.z o - V S ;.g.g.h.E t.t.t.t.=.J D   ",
"~ g.m.D..X9XE.F.C 7XhXwXqXhXyX>.$.W.0XaX=X=X:X>XcX=Xb.-.6 OXBXpXsX6XA.| _ * l J D t w S D v.u./ F j C :.>.. * V j.H.|.XXJ.g.t.+ ",
"p.p.[.rX.X7X8XZ.{ p { 7.w.7.j u 7.Z.W.+X+XuXcXcXkXuXg.K X f g.t.j.B.1.q.$.l g p.W W ).nXH.oX}.p.J.F.0X0X7X, V yXpXyXaXtXnXtXXX6 ",
"x.`.lXyXF.W.!.0. .; 1 p m i O + | ] [ j w v t 2 3 w 2   - 5 q 7 8 k i u B G b.cXcX<X<X,X&.m.AX4X.X0XE.F.C.:.H f.yXaXOXoXrX,X<Xd ",
"y.^.t.L o.{ | _ X._  . .{ 7.B > < p Z.W.K.].n.r.c.r.=.o r.XXM.(.&X=XZ.@.+.g p.kX$X;X1XtX&.6 c.c.G C u +.L , L yXXX=X:X>X*X:XkXT ",
"/ / # X l i < ] p ] $.$.@.Z.B.j ] $.8X0X_.=X:XkXn.y.*Xe E AX:XcXcXzXpX.X9Xx r.:X;X<XoXpX3.. ! <X|.+Xg.&.L + h.iX=X:X>X*XlXcXkXt ",
"(.c.K S f G d.g h R.tX|.j.m.m.8 Z 7.8X+X=XXX;XvX&Xc.<Xv y.ZX2XxXcX<X=XoX,Xr E :X:X<X1X1X[.% m.<X<X,XrXb.J.9 J.,X>X:XkXlXkX<XtXw ",
"m.H.h.v.H.*XiXr.D ).*X1X).v.m.G [ w.yX+X=X*X;X4XvX;XZXQ u.AXxXxXcX<X:X:X<Xf E {.*X<X1X1X[.4 H.uX{.=XuX[.rX8 b.=X*X<X<XkXcXMXaX= ",
"m.*XG.m.{.iX,XR E [.=XiXoXm.m.I C V.hXOX=X:X;X;XkXkXZXp.c.cXxXkX:XXXXX*X=Xt x m.,X<X,X=XOXt {.uX&X:X<X=XNXf S.zXmXZXcX:XuXtXOX- ",
"-.oX[.XXzXnX:XE K oX,XuX,XoX[.L s B.gXOX:X:X;X;X:X<XzXG.G.<X:X=XoXoX,X,XoXf g H.*X,X,XOX,XJ =XlX:X:X=X=XNX8 E G.(.'.^.~ T J G + ",
"v.uX=XoX=X=X=Xb.! oXoX,XzXiX:Xs.l f.BX,X:X;X;X:X=XzXpXD.j.9XrX XoX@XtXOXH.r 8 m.XXoX<XOXuX! ,XlX:X;X>XuXzX= 2 7 e e t 5 3 $ = X ",
"G.zXiXuX=XoXuXG.b.iXoXuXnX=X*XH.l f.BXkXkX;X;X:X{.zXpXf.:.9X9XOXOX@XtX Xd.7 4 h.H._.,X*XiX~ =XzX<X>XXXiXzXg E E R c y.u.v.r.W x ",
"- W b._.J._._.x m.NXtXuXzXXXXX_.8 5.nXlXcX2X-X:X{.rXyXB.o.F.Z.6XyXyXdX@XS.N 0 S.m.m.,X=XuXE {.zXkX:X>XuXrXt.pXtXkX:XVXVXAXcX:X_.",
"x g.m.m.h.XXiXE E MXMX,XuXuX<XJ.8 %.rXuXVX4X;X:XuXOXsXE.#.@.Z T..X.X@XR.l.G 8 l.h.j.1X1XuXR [.zXkX:X:X,X|.;.nXrXzXlXZX:X<X>XXX_.",
"x {.uX=XuXrXtXF + %.t.XXuX=XuXd = L XXlXcXxX-X:XoX9X9X@.7.6.> > i H G I 9 = S S.h.j.iX*XlXJ (.lXkX<X*XrX|.s.MXtXiXuXkX:X:XuX=XM.",
"q G.uX=X,XOXtXO.a -.t.t.%.K v + 9 H XXlXxXxX2XkX=XOXOX*.; #.u B V s 9 9 X - %.j.S.[.,X,X=Xv :XmXcX<X=XrXj.*.gXrX=X*X>X&X>XuX=XG.",
"- i.<X=X=X XtX5.%.g.rX=X|.[.t.-.h H  XzXkXvXkXkXzX=XrXF.; T.F.5.d.3.5.3.4 G U.m.H.=X,XiX{.t <XuX<X:X=XpXf.5.9XOX,X=XuXuX<X<X(.=.",
"$ ~ :X,X,X XtXl.V ;.rXrX,X:Xb.m.V C |.MXuXkXkX<XXX_.rXD.6 9XR.%.%.;.d.j.7 S S.j.OXrX<XnX{.K nXmXAXzXOX+X*.+.f.R.|.|.=X<XuX<XG.E ",
"3 E oX,X,XOXtXD.O.|.rXOXOX1X1XoXo.o.E.MXiXcXcXkX*XuXMXg.g OXJ.i.h.h.i.s.f K [.zXiX[.H.[.=.f h.M.{.OXJ.R.Z.7.#.T.yXiXzXzXlXuX(.W ",
"5 J [.=XrX@X9XY.H 9X.X|.OX,XmXrX#.$.W.9XrXzXlX<XlX<X{.d W uX:X*Xh.a.~ p.x f =.h.K 8 4 J f 4 w d d F G V o.C > +.*.;.g.g.t.E 5 . ",
"5 x H.oX,X@X9X XU tXtX@X,X=XlXOXB ] >.+.;.b.c.c.t.D q . c :X&X*Xp.=.p.{.D f ~ K t.D 7 [.uXoX=X=XXXG.S.i > [ #.V.f.S.|.=X*X`.t.d ",
"3 f M.[.@X X9X@XO.9XtXOX,X*X<XtX: : > * - w e e 5 3 3 & T :X&XkX`.p.{.lXK r.nXlXNXoXr oXnXoXuX,XuXoXBX>.B Z.!.T.9X9XrX=X=X=X[.g."
};
