/* XPM */
static char *_fc1bb641d5a4ef2be1ff7089f250f28eH1h4ZUJC2oXpq3D[] = {
/* columns rows colors chars-per-pixel */
"64 64 250 2 ",
"   c #3B3939",
".  c #33362F",
"X  c #733E1C",
"o  c #4A372B",
"O  c #563A29",
"+  c #473A36",
"@  c #553E37",
"#  c #432E28",
"$  c #6A3D26",
"%  c #49230E",
"&  c #38443B",
"*  c #5A422E",
"=  c #4C433C",
"-  c #45443B",
";  c #544334",
":  c #5C4434",
">  c #5B453B",
",  c #544A3C",
"<  c #58483B",
"1  c #41432E",
"2  c #674328",
"3  c #77472B",
"4  c #644B3B",
"5  c #6B4D3D",
"6  c #664636",
"7  c #744D3C",
"8  c #764B36",
"9  c #6D523C",
"0  c #67533A",
"q  c #74523D",
"w  c #7B563C",
"e  c #7B5437",
"r  c #7C502D",
"t  c #69411E",
"y  c #383C44",
"u  c #2D3D42",
"i  c #423F42",
"p  c #423D53",
"a  c #394548",
"s  c #3C4A53",
"d  c #3E5457",
"f  c #444344",
"g  c #4B4B4D",
"h  c #484848",
"j  c #534544",
"k  c #534C44",
"l  c #5C4B44",
"z  c #544B4A",
"x  c #5B4C4A",
"c  c #594545",
"v  c #4D524C",
"b  c #45524B",
"n  c #5C524B",
"m  c #575249",
"M  c #484C54",
"N  c #544C55",
"B  c #4C5555",
"V  c #485659",
"C  c #535454",
"Z  c #54555A",
"A  c #545A5B",
"S  c #5C5A5B",
"D  c #5A5755",
"F  c #634D42",
"G  c #6A4D42",
"H  c #654947",
"J  c #724D45",
"K  c #645244",
"L  c #6C5244",
"P  c #64534C",
"I  c #6D544B",
"U  c #695A49",
"Y  c #735444",
"T  c #7A5544",
"R  c #7A5A45",
"E  c #765849",
"W  c #655856",
"Q  c #735853",
"!  c #624E50",
"~  c #5A615D",
"^  c #69655D",
"/  c #78655A",
"(  c #786048",
")  c #555D64",
"_  c #5C5D61",
"`  c #555864",
"'  c #4B5662",
"]  c #6B5F62",
"[  c #5C6364",
"{  c #596369",
"}  c #566570",
"|  c #636364",
" . c #686869",
".. c #776A68",
"X. c #6C726C",
"o. c #76746D",
"O. c #666B73",
"+. c #6C7478",
"@. c #787878",
"#. c #706D74",
"$. c #874C35",
"%. c #8C5C3B",
"&. c #865739",
"*. c #935C3B",
"=. c #985836",
"-. c #8E4E2B",
";. c #A65C38",
":. c #A4592F",
">. c #98623A",
",. c #85633D",
"<. c #A4633C",
"1. c #AB633D",
"2. c #AA6638",
"3. c #B6693C",
"4. c #BA753B",
"5. c #804C1D",
"6. c #C46C3E",
"7. c #845B43",
"8. c #8B5C43",
"9. c #895B49",
"0. c #935D42",
"q. c #995D45",
"w. c #9B5D52",
"e. c #A45D44",
"r. c #996447",
"t. c #89624C",
"y. c #A46443",
"u. c #AB6543",
"i. c #AC6B44",
"p. c #AC6D4B",
"a. c #A66949",
"s. c #B36C44",
"d. c #BB6D44",
"f. c #B36D4B",
"g. c #B96D4B",
"h. c #B46746",
"j. c #BB7244",
"k. c #B4724C",
"l. c #BB724C",
"z. c #B87549",
"x. c #A96A51",
"c. c #BC7453",
"v. c #B87955",
"b. c #B07152",
"n. c #827979",
"m. c #877063",
"M. c #C46E49",
"N. c #C37345",
"B. c #C3754C",
"V. c #C47A4B",
"C. c #CC7C4D",
"Z. c #C97948",
"A. c #D27E4C",
"S. c #CB7D53",
"D. c #C57A56",
"F. c #D27D53",
"G. c #D97C54",
"H. c #CA7E63",
"J. c #76827E",
"K. c #8C857B",
"L. c #B6805A",
"P. c #C9814D",
"I. c #D5854D",
"U. c #DA854E",
"Y. c #D9894B",
"T. c #CD8253",
"R. c #CD845B",
"E. c #CD8A5C",
"W. c #C68457",
"Q. c #D48454",
"!. c #DA8555",
"~. c #D48A55",
"^. c #DB8A55",
"/. c #D4855B",
"(. c #DB865A",
"). c #D58A5B",
"_. c #DB8B5C",
"`. c #DD915C",
"'. c #D7925C",
"]. c #E48A4E",
"[. c #E38B55",
"{. c #E1865B",
"}. c #E38C5B",
"|. c #EB8D5B",
" X c #E68954",
".X c #E3915D",
"XX c #EA935C",
"oX c #E69255",
"OX c #F6965C",
"+X c #E98F57",
"@X c #CD8762",
"#X c #D48561",
"$X c #DA8561",
"%X c #D58B62",
"&X c #DC8B62",
"*X c #D98D69",
"=X c #DD9263",
"-X c #DA9466",
";X c #D1906C",
":X c #E28C62",
">X c #EA8E62",
",X c #E48B67",
"<X c #E49263",
"1X c #EB9463",
"2X c #EB9963",
"3X c #E59369",
"4X c #EB9A6A",
"5X c #E79769",
"6X c #F29464",
"7X c #F59A67",
"8X c #EE926D",
"9X c #F3A26D",
"0X c #787C84",
"qX c #6C7B86",
"wX c #8A7A85",
"eX c #7D8587",
"rX c #7C8894",
"tX c #84898B",
"yX c #989799",
"uX c #8B8C91",
"iX c #939CA2",
"pX c #95A4A9",
"aX c #A5A5AA",
"sX c #AAB3BC",
"dX c #AEAFB7",
"fX c #A69C93",
"gX c #B4C0BE",
"hX c #D0C3BA",
"jX c #B9BCC4",
"kX c #B5BCCA",
"lX c #B7C9D0",
"zX c #C6C8CA",
"xX c #C6CDD6",
"cX c #CAD3D8",
"vX c #D6D7DB",
"bX c #D7CFC9",
"nX c #DBDEE8",
"mX c #C7D8E2",
"MX c #DBE7EB",
"NX c #E5EBEA",
"BX c #E7ECF7",
"VX c #EBF7F9",
"CX c #F4FCF5",
"ZX c #FDFDF5",
"AX c #FDF6FC",
"SX c #F5FCFD",
"DX c #FEFEFE",
"FX c #FDFDFD",
"GX c #F7F5F7",
"HX c #F2F2EE",
/* pixels */
"SXDXZXDXSXSXDXZXSXSXDXDXDXSXSXSXAXZXFXSXFXDXFXZXDXDXDXDXDXDXDXDXSXZXFXAXSXSXSXDXDXDXDXDXDXDXDXSXSXSXFXZXDXZXAXCXZXZXCXZXSXSXDXSX",
"ZXFXZXDXFXFXDXFXDXDXFXDXDXDXDXDXDXDXZXSXDXSXGXSXSXDXDXDXSXSXDXDXDXDXAXDXCXDXFXFXFXFXDXDXDXDXDXFXDXDXZXAXDXSXAXDXFXDXSXFXSXFXGXFX",
"FXSXaX@.#.^  .O. . .S W W S W S kXdXk k ; f = - + = = = = j = = + kXlXW D W W m ! x x x z z D W ^ o.VXdX|  . .^ O.| { o.@.n.xXSX",
"FXuX% r.r.1.u.;.1.k.i.i.k.s.s.<.o # k.f.B.S.S.Z.C.A.F.Q.Q.S.S.Q.1., , ;.N.c.c.Z.S.B.B.B.D.V.l.u.f.3 h o u.1.;.a.<.=.=.:.=.-.# ZX",
"AXn.y.9X*.B.3X1X^..X}.<X<X.X<X{.+ = ).N.=X(.}.[._._._.(.F.Z.Q.,XC., - _. X8X&X+X_.}.}.}._.`.~.V.2XW.. R 9XoXXX=XXX<X.X6X3X3Xl HX",
"SX@.=.`.p.D./.{.}._.(.(.(.!.^._.o + ^.}.=X).).~.).).).%X/.S.R.-XA.j x V.^./._.~./.(._.!.Q._.).T._.l.  J /.a.g.R. X/.(.I._.Q.c HX",
"DX@.:.2X;X).'.R.Q.Q._././._.(.(.o + {.C.H.D.#X,XQ.Q.Q.^.(.^.^.^.C.z z B.`.$X(.).&X_.(.(.{.:X/.B.^.j.- 7 _.v.%X(.!.;X).).Q.}.l GX",
"DXeXe.1X&XOX[.3X1X<X<XZ.Z.<X<X1X. . XX.Xc.).2XXX1X1X1X:X}..X1X1XU.m m G..X<X|.>X)._.<X.X_._.=X=X<XD.a R OX_.}.}. X%X<X>X:X[.l VX",
"SXn.X S.6.3.d.p.2.2.e.r.=.q.q.3 D Q 7 x.h.;.;.<.*.:.=.r.i.u.a.b.$...o.3 M.s.p.f.=.p.;.4.g.g.c.4.B.e U 6 k.6.N.b.s.2.3.k.M.;.1 ZX",
"AXBXW C C { S { X.rX| B S | | +.lXgXb & & a a u ` 0X{   f f f a f pXlXB h b b h M X.@.~ ` Z N Z n C lXrXf k z z ^ @.O.) A S xXDX",
"ZXyX: I Q I R Y Q lXP R Y R w R 3 3 8 q 7 Y Y T ; xX^ w 9 R w w w $ $.t.R R T R 6 ^ jX; Y T Y 9 L E 6 4 P x F 6 ..cXW P ( * yXDX",
"CXj D.3X!.Q.[.|.$.. q.1X3X_.XX:X3X:X<X:X4X{.|.7X<.v 3 XX4X<X X|.,X7X.X$X:X X X_.|.7 i i.1XS.;XY.}. X X X(.,X!.XX8 - =._.`.Z., SX",
"DX! F.[.U.}.!.8Xr.a r.XX(.Q.^.(.Q.Q.(.(.Q.(.Q.`.y.) R |.g.#X:X!.(.P.'./.!.].U.).+XY M f.C.-.v.:X/.%X).Q.^._.Q.=X7.. b._._.F.P SX",
"AXn V.).`._.~.=X>.  r.oX/.).).Q._.<X(.{.:X_._.=X;.V w |.D.P.).%X X_.).$X(.'.).$X_.w M a.<X$X)./.).(.(.{.^.I.!.>X&.y r.!.&XS.I GX",
"SXC W.s.F._.~.'.r.y y.<X/.{.*X!.@X1.).&X/.Q.)..Xh.A &.|./.I.).).!.).).!.$Xi.v.$X,X&.s y.XX[.Y.^.R.$X$X/.%X).&X,X7.p a.!.(.V.W DX",
"DX- G.Q._._.{.OX%.y $.`._. X/.+X$XS.N..X.X}.{.6Xq.V 8 ,X&X].}.{.:X_..XXX{.#X/.[.4X3 a 1.XX%X3X|.[.+XXX}..X.X!.6X&.a =.2X1XG.- DX",
"ZXtXH E E q 6 4 x hX/ F L Y G Y 8 2 Q I 8 W Y q k bX/ F L L 5 L w * T R 7.&.E T L / hX; E R R Y 7.7.2 7 E r Y q S bXn w &.3 tXFX",
"DXcX- b b a f y B eX .A ~ C C v iXlXA f , g h g _ 0X .f f i f i D mXyXf a a s a i O.0X) g h h g M O.lX0X' ~ {  .J.uXqXV M v lXZX",
"FXj e.D.D.s.l.j.g.1.u.1.u.u.f.u.4  .$.l.s.l.k.c.l.s.l.l.V.c.c.W.3 tXY i.b.i.h.3.s.s.<.<.g.d.l.k.k.2 K.$ y.a.a.i.1.2.1.s.k.<.j DX",
"DXP %X}.B.=X}.[.{.{.1X1X1X<X1X1X5 h S.1X).|.}.3X}.<X!.<X}._.(.4Xa.) q XX).5X[.oX1X{.3X<X1X1XF.Z.7X0.a a.9XD.>X<X3X.XXX.XXXU.< VX",
"AXF T.I.D.@X#X{.)._.).~.~.~.^.^.9 V j.<X;XQ.~.(.^.Q._.!.!._.(.1Xs.' Y }.i.v.R.E.Q._.)._.T.).).E.1X8.s r.&Xb.(.&X).!.{./.%XT.K AX",
"SXS D.{.,X_.!.[.$X/.)._.Q.}.!.!.7 Z B.S.y.S.<XG.^.Q._.(.(._.!.}.<.) E }./.&X(.:X^.^.^.Q._.Q._./.|.&.s *.1X%XI._._.{.&X(.:XS.n SX",
"CXk )..X(.`..X`.<X_.:X<XZ._.}.1X5 C B.<XR._.^.<X=X3X/.=X_.).=X4Xs.C q 1XoXoX[.oX<X:X,X:X}.:X(.,X6Xr.& >.7X<X[.'.&Xi.v.%X}._.4 ZX",
"DXl =.V.M.j.B.l.j.3.l.l.c.z.l.:.S +.-.V.z.k.z.g.3.s.d.V.s.1.V.V.$.O.> u.s.d.g.k.k.s.d.d.B.N.j.l.c.$ +.3 D.s.B.B.3.u.u.3.Z.=.C FX",
"SXnXD ' C v N g | o.D M c A M ` zXzXS C C C C C _ ..^ j M N h g S vXdXA A S C C W ....D g k N A Z 0XvX#.g g g C X.eX..D ~ B xXZX",
"SXn.7 I 9 0 K , | xX< I R L R R L F F F L I F I * sXrX* 9 5 9 5 I : I / I I Q Q < sXjX> K G J 4 K F > L L 4 L 4 ..jX< I U G wXDX",
"NXO /.=X!.(.!.XX7 f >.3X(._.[.[.}._.}._.!.(.!.<Xj.+ < _.~.,X_._.!.}.{.!._.(.!.{.l.= , d.=XQ.&X{.(.!.{.}.!.}.[.6X7   =.<X/.F.H SX",
"BXH G.)._.$X%X|.7.f p.1X{.(.).{.Q.`.Q.~._.^.).).R.c G (.1.h.!.%X~.`.~.~._.Q.^.`.{.n = G.=X!.^._.(.).=XQ._.).Q..X&.M a.S.x./.l CX",
"NX< [.V.T.*XR.1Xe V y..X&XR.'./._.(.:X(.(._.&X:XV.j < Q.E.l.}.E._.(._./._.3X(.(.^.K = C.'.!.`.E.(.,X(.&X_.(.(.8X&.a <.1XV.I.< SX",
"VX@ {./.!._.Q.^.w s v.!.s.3.[.)././.(.(._.).V./.C.g g (.[.:X(.^.(._./.&X&XS.T.=XA.n z Z.V.D.#X{.^.(.Q.Q.Q.`.Q._.9.b r.=X).G.l SX",
"NX@ &X8X|.|. XOX&.= *.3X/.-X X&X}.1X!.{.}.}.A.}.N.H = F.[.:X_.[.{.1X{.:X5X_.!.:XC.K c B.(.D.H.6X{.}.[.1X1X!.[.1XT & *.1X XG.; DX",
"SXQ 3 w &.R 9.w D zXK R T L e E 6 2 R q w R R R : aXfX2 Y Y L q q O Y E / t.9 Y * yXaX, ( w T 0 Y Y 6 L 5 Y 5 G / lXH E q 4 uXDX",
"DXNX[ } { } [ ' eXiXuXO.O.O.{ [ sXxX ._ ~ } ) S +.uXeX{ B ) Z ) { cXaX[ | S ) _ { tXtX[ g C Z C h  .zXS M b B m +.K.O.D A | xXFX",
"SXK 3 0.=.*.y.e.=.=.=.y.a.a.p.=.W o.3 f.>.x.x.y.y.<.i.p.k.k.f.b.&.+.Q >.p.b.i.z.p.i.u.i.k.g.f.g.D.: [ q l.s.i.z.i.<.a.i.s.;.< AX",
"BX> 6X3X2X2X3X<X<X<X<X4XS.j.3X<XJ v S.1X5X<X3X=X3X=X5X`._._.<X<X!.i G 2X3X3X<X&X=X<X<X<X<X<X.X.XOXt.M p.2X}.<X|.|.:X:X1X|.|.c GX",
"HXF ^.E.).[./.~.Q.(.Q.(.T.N.).(.Y B B.'.(.Q.(.(._./._./._.(.Q._.z.- I /.(.).~.(./.(.(./.(.(.Q.Q.XX%.V e.<X!.^.%X(.%X^.Q.).Q.z ZX",
"NXF ].W.). X&X^.(._.!.Q._.).Q.!.9 g B.)._._._.!.(._._._.(._.(..XW.h G ).^.T.~.(.(.(.(.(.(.(.(.Q.[.*.a =.<X{.I.%X(.%X^.(._.P.z GX",
"VX4 6XQ.U.}._.}..X}..X.X_.=X<X2XQ g F.!.I.}.(.=X.X<X<X(.C.^..X.XZ.f G 2XF.g.Q._.<X<X<X.X.X<X<X_.7Xt.a a.9XP.Q.8X1X:X<X4XXX!.n SX",
"SXl =.b.l.k.g.g.u.1.1.s.f.f.u.:.l X.$.c.i.b.g.k.s.1.h.f.f.l.l.c.&.+.I =.p.b.s.2.g.1.1.s.s.i.i.i.h.4 @.2 u.=.y.y.y.=.r.<.u.-.l FX",
"DXvXS ' N B v B X.@.X.~ _ _  . .jXcXS Z C V V m ~ @.@.| | _ D S [ cXdXB A _ )  .| @.eX .g g A B Z J.nXeX' [ { [ 0XuX0X|  . .MXSX",
"DX@.3 E Y L Y q | zXP U q Q E Q G 4 Y L G Y Y Y ; jXaX> U G F K P : 4 L E L L E I W mX! 5 Y 9 w Y Y O 4 L L 5 5 / lXI Q 9 3 O.FX",
"NX@ <X_.[.:X:X|.q # y.-XQ.&XQ.).!.}.!.[.}.!.A.1XN.c < S.U.:X&X{.!.1X^.}.}.!.!.!.{.-.- $.7X{.`.`.{.{.}.{.}.!.(.1XJ . =.6X+X X@ NX",
"MXF !.^.U._.Q.XXT   c._.Q.[.Y.}.).)._._._.P.V._.C.g D !.]._.^.!._.^._.Q.^.~.=X).6X*.a t.[.!.^.).Q.=X(.).~.Q._._.7.a p.S.z.^., MX",
"NX6 [.!._.%X).].&.a l.}.=X^.'./.&X(.&X$X(._.&X3XV.m K A.%X%XI.&X(.Q.(._.(.&X$X/.,Xr.s 8..X;X!.^.Q._.!._.(.!.(.<X%.  u.Q.).[.; NX",
"MX: {.&X_./.(.|.7.a v.(.l.C.).*XQ.=XC._.(.(.Q.Q.B.W F G.c.@XQ.$X).=XQ.=XQ.).V.).1X<.a %.XXg.[.[.`.~._.Q._._.Q..X*.h b.8XR.(.6 NX",
"NXo (.Q.[._._.<X8 h =.&Xd.:X}.(.}.[.}.[.[.!.[.1XN.! l S.Q.&X<X(.{.!.{.!._.!.3._.}.=.  &.Y.B.C.E.G.{.Q.:X(.(.{.>X7   =.{.C.S.@ BX",
"SXuX6 K 9 5 4 0 Q nXQ L E J T R L G L 5 L L G L : sXpX: L J 6 5 F : I I L I / I U I xX .4 I F P L I K L Q I L G / cXW < W j yXDX",
"ZXjXj s g g N h  .O. .b & V A V aXdXh g g Z Z Z { @.o.A d N C A 0XnX0X_ | _ _ [ [ ..#. .v g C k C tXvXA g v C v  . . .n v _ cXDX",
"VXO 2.v.l.M.N.z.p.y.<.s.i.s.s.;.P | :.D.l.g.c.d.k.2.;.s.i.y.i.g.2 +.3 k.k.N.g.d.k.s.h.d.k.i.v.s.c.t ~ -.D.l.j.B.d.i.p.j.k.2.o ZX",
"BX6 /.a.@X<X_._. XXXXX}.1X<X<X<XU v P..X`..X{.XX<X.X}.}.<X.X}.7Xr.g r.7XS.N.&X1X.X.X_..X.X.X.X`.6X&.V p.1X>X.X*X}.=X<X X:X3Xc BX",
"HX* (.D.l._.(.&X{.:X!.&X/.$XF.(.I Z d.{.).&X!.).R.%X,X_./.).(.:X8.' 9.1Xf.z.v.@X$X&X_.(.!.$X(.!.}.7.s p.}./.).(.Q./.Q. X(.Q.> HX",
"BXG Q.-X~.~.T.&XQ.).R.3.)._.^.U.I Z l.6XV.S.!.E.}.Q.!.!.!.!.!.1X&.{ 8.].).=X!.^./.Q.I.^./.%X).I._.R C a.&Xs.W.{.%X%X/.U.Q.).; CX",
"VX@ 5X:X].oXXX[.1X.X<X(.F..XXXXX< - v.5X/.#X7X3XXX2X2X.X1X<X_.4X,.[ 8 7X.X}.|.|.<X2XXX1Xc.v.%X<XOXe j y.7X^._.<X>X>X|.OX<XS.< GX",
"FXW $.w.q.q.q.e.=.-.*.r.r.r.r.3 ..dXO 0.%.7.$.8.&.3 $.%.*.0.r.r.4 vXl %.8.&.r.%.*.$.X 0.&.8.&.0.e W jX> 7 w Y T $.$ 7 w E 2 n.DX",
"DXBX^ V b d s g qXlXqX{ A A V V iXsX+.O.~ } ) V } sXuXM M C g C tXkXtX` _ ) A { [ pXlXqX{ [ _ ) { uXdXtXO.O.O.W eXlXqX{ } ..MXDX",
"FX .3 9.=.0.8.8.x fX6 9.r.*.r.r.=.5.%.9.-.9.9.*.F K.m.9 9.q.%.%.&.5.&.t.0.q.0.q.8 m.fX; 8.=.%.t.%.%.-.%.r.>.q.%.c m.$ *.8.r z DX",
"VXk .X.X>XOX&XOX7.u l.4X|..X<XXX1X1X.X1XXX1X}.2XP.f l XXXX.XoX>X1X1X.X.X<X<X<X.X+XF b N.4X{.1XXX<X4X2X<X3X=X<X7X&.u v.OX1X{.j SX",
"GX> U.^.(.Q.@X|.$.f l.~.Q.~.).!./._.(.).Q.)._._.4.z H Q.Q.&X/.%X(.(.(.(.(.(.(.(.Q.Q S s.W.D.$XI.Q.!.!.!._.^.!.}.e a x.<X/.#Xz SX",
"GXl !.).).).;X}.8.a f.E.h.*X_.*X(.(.^._._.!.(.C.C.j F ^.^.$X!.)._._.(.(.(.~.~._.Q.Q S 3.5X#X#X~._._._._./.S.Q.<X&.- f.|.!.G.< ZX",
"VXl &X_.{.`.T.OX( y v.5XS.(.].Q._._._.&X/.N./.%XD.M n }.[./.}.[.&XS.B.D.$X3X&X).].I O.d. X}.:X}._._._._.T.B.Q.1XT g p.~.'.&XP AX",
"HXO D.S.A.P.C.I.2 = -.!.R.C.Y.).Q.Q.Q.~.T.N./._.;.k ; C.^.R.(.Z./.T.S.S.Z.V.S./.4.< X.-.Q.N.D.B.V.V.C.C.S.S.C.Q., D =.&XQ.g.= CX",
"SXaX@ W l D W x n.mXP m m c < c > > > 4 F F K > > cXyXO l ! @ W l l , l l K P P n dXBXW n k ! n n x P P W W P F tXvX= n U < yXDX",
"DXFXDXSXDXSXDXDXDXDXFXSXSXDXSXDXSXSXFXSXGXSXSXSXSXDXDXSXSXSXSXVXFXDXDXDXDXDXDXDXDXAXDXZXDXSXAXZXDXDXDXDXDXDXDXZXFXDXDXDXGXZXAXDX",
"FXZXFXDXAXDXFXCXSXGXDXDXFXAXSXFXSXDXSXDXDXDXCXSXSXFXZXFXDXZXZXDXFXFXFXDXDXDXDXDXSXZXSXSXDXCXDXDXSXSXFXDXDXDXDXFXCXDXSXDXDXCXDXSX"
};
